<svg width="214" height="214" viewBox="0 0 214 214" fill="none" xmlns="http://www.w3.org/2000/svg">
<path d="M214 107C214 86.181 207.927 65.8142 196.524 48.3956C185.121 30.9769 168.885 17.2631 149.804 8.93468C130.724 0.606284 109.628 -1.97488 89.1021 1.50751C68.5765 4.98989 49.5125 14.3846 34.2466 28.5402C18.9807 42.6958 8.17593 60.9975 3.15647 81.2023C-1.86299 101.407 -0.879105 122.637 5.98754 142.291C12.8542 161.945 25.3053 179.169 41.815 191.852C58.3247 204.535 78.1759 212.127 98.9356 213.696L102.948 160.615C92.5158 159.826 82.5406 156.012 74.2445 149.638C65.9483 143.265 59.6916 134.61 56.2411 124.734C52.7906 114.858 52.2962 104.19 54.8185 94.0366C57.3408 83.8837 62.7702 74.6871 70.4413 67.5738C78.1125 60.4606 87.6921 55.7398 98.0063 53.9899C108.32 52.24 118.921 53.537 128.509 57.722C138.097 61.9071 146.256 68.7983 151.986 77.5512C157.716 86.3041 160.768 96.5384 160.768 107H214Z" fill="#FF5C00"/>
<path d="M96.2516 213.459C113.268 215.177 130.448 212.791 146.353 206.501C162.257 200.21 176.421 190.2 187.659 177.307C198.897 164.414 206.881 149.016 210.941 132.402C215.001 115.788 215.02 98.4425 210.995 81.8199L159.391 94.3146C161.419 102.689 161.409 111.427 159.364 119.797C157.318 128.167 153.296 135.924 147.635 142.42C141.973 148.915 134.838 153.958 126.825 157.127C118.813 160.296 110.158 161.498 101.585 160.632L96.2516 213.459Z" fill="#0F61FF"/>
</svg>
