<svg width="214" height="214" viewBox="0 0 214 214" fill="none" xmlns="http://www.w3.org/2000/svg">
<path d="M97.0161 0.466804C76.2879 2.40937 56.5767 10.3567 40.298 23.3349C24.0193 36.3131 11.8803 53.7584 5.36856 73.5328C-1.14314 93.3073 -1.74466 114.552 3.63774 134.663C9.02013 154.774 20.1526 172.878 35.6709 186.757C51.1892 200.635 70.4192 209.685 91.0042 212.798C111.589 215.91 132.635 212.949 151.563 204.279C170.49 195.608 186.477 181.604 197.564 163.983C208.652 146.362 214.357 125.889 213.983 105.074L165.193 105.952C165.397 117.275 162.293 128.411 156.262 137.996C150.231 147.581 141.535 155.198 131.24 159.915C120.944 164.631 109.496 166.241 98.2991 164.548C87.102 162.855 76.6419 157.933 68.2007 150.384C59.7596 142.834 53.7041 132.987 50.7764 122.047C47.8486 111.108 48.1758 99.5519 51.7179 88.7956C55.2599 78.0394 61.8629 68.5501 70.7176 61.4906C79.5724 54.4312 90.2943 50.1082 101.569 49.0516L97.0161 0.466804Z" fill="#FF5C00"/>
<path d="M96.2516 213.459C111.366 214.985 126.633 213.275 141.036 208.442C155.438 203.61 168.647 195.766 179.783 185.433C190.918 175.099 199.726 162.513 205.62 148.511C211.513 134.509 214.358 119.413 213.964 104.226C213.57 89.0398 209.947 74.1112 203.336 60.4336C196.724 46.756 187.276 34.6431 175.62 24.9005C163.963 15.158 150.366 8.00929 135.732 3.9299C121.099 -0.149483 105.764 -1.066 90.7487 1.24133L98.2538 50.0824C106.335 48.8406 114.588 49.3339 122.463 51.5294C130.339 53.7248 137.657 57.5721 143.93 62.8154C150.203 68.0587 155.288 74.5777 158.846 81.9387C162.404 89.2998 164.354 97.3341 164.566 105.507C164.778 113.68 163.247 121.805 160.075 129.341C156.904 136.876 152.163 143.65 146.17 149.211C140.177 154.773 133.069 158.994 125.317 161.595C117.566 164.195 109.35 165.116 101.215 164.294L96.2516 213.459Z" fill="#0F61FF"/>
</svg>
