<svg width="131" height="131" viewBox="0 0 131 131" fill="none" xmlns="http://www.w3.org/2000/svg">
<path d="M130.888 65.4439C130.888 101.588 101.588 130.888 65.4439 130.888C29.3002 130.888 0 101.588 0 65.4439C0 29.3002 29.3002 0 65.4439 0C101.588 0 130.888 29.3002 130.888 65.4439ZM19.8704 65.4439C19.8704 90.6135 40.2743 111.017 65.4439 111.017C90.6135 111.017 111.017 90.6135 111.017 65.4439C111.017 40.2743 90.6135 19.8704 65.4439 19.8704C40.2743 19.8704 19.8704 40.2743 19.8704 65.4439Z" fill="#FF5C00" fill-opacity="0.44"/>
<path d="M42.3875 122.66C56.6757 128.575 72.6573 128.944 87.2035 123.696C101.75 118.447 113.813 107.957 121.032 94.2814C128.251 80.6054 130.105 64.7275 126.232 49.7561C122.359 34.7846 113.038 21.7978 100.093 13.338C87.1477 4.87817 71.5111 1.55457 56.2443 4.01787C40.9775 6.48116 27.1798 14.554 17.5524 26.6558C7.92491 38.7577 3.16102 54.0172 4.19332 69.447C5.22561 84.8768 11.9798 99.3657 23.1335 110.077L31.3549 101.516C22.3338 92.8529 16.871 81.1343 16.0361 68.6547C15.2012 56.1751 19.0542 43.8332 26.8409 34.0452C34.6276 24.2572 45.7872 17.7279 58.135 15.7356C70.4828 13.7433 83.1296 16.4314 93.5996 23.2737C104.07 30.116 111.609 40.6198 114.741 52.7287C117.874 64.8375 116.374 77.6796 110.535 88.7407C104.697 99.8018 94.9397 108.286 83.1747 112.531C71.4098 116.776 58.4839 116.478 46.9276 111.693L42.3875 122.66Z" fill="#FF5C00"/>
</svg>
