<svg width="132" height="131" viewBox="0 0 132 131" fill="none" xmlns="http://www.w3.org/2000/svg">
<path d="M66.1069 -8.86921e-05C29.9632 -8.71122e-05 0.66299 29.3001 0.662992 65.4438C0.662993 101.587 29.9632 130.888 66.1069 130.888C102.251 130.888 131.551 101.587 131.551 65.4438C131.551 29.3001 102.251 -9.0272e-05 66.1069 -8.86921e-05ZM66.1069 111.017C40.9373 111.017 20.5334 90.6134 20.5334 65.4438C20.5334 40.2742 40.9373 19.8703 66.1069 19.8703C91.2765 19.8703 111.68 40.2742 111.68 65.4438C111.68 90.6134 91.2765 111.017 66.1069 111.017Z" fill="#76ADFF" fill-opacity="0.62"/>
<path d="M82.3137 124.718C68.8738 128.319 54.6138 127.301 41.8221 121.826C29.0304 116.352 18.4487 106.738 11.7752 94.5293C5.10167 82.3202 2.72331 68.2231 5.02179 54.5003C7.32026 40.7775 14.1623 28.2248 24.4499 18.8565C34.7374 9.48829 47.874 3.8478 61.7514 2.84023C75.6289 1.83266 89.4424 5.51644 100.975 13.3004C112.508 21.0844 121.092 32.5172 125.348 45.764C129.605 59.0109 129.288 73.3037 124.448 86.3487L113.32 82.22C117.234 71.6692 117.491 60.1092 114.048 49.3951C110.605 38.681 103.663 29.4342 94.3352 23.1385C85.0074 16.8429 73.835 13.8634 62.6109 14.6783C51.3869 15.4933 40.762 20.0553 32.4414 27.6323C24.1208 35.2094 18.587 45.362 16.728 56.461C14.869 67.56 16.7926 78.9618 22.1902 88.8365C27.5877 98.7112 36.1462 106.486 46.4921 110.914C56.8381 115.342 68.3715 116.165 79.2417 113.253L82.3137 124.718Z" fill="#0066FF"/>
</svg>
