<svg width="132" height="131" viewBox="0 0 132 131" fill="none" xmlns="http://www.w3.org/2000/svg">
<path d="M131.775 65.4439C131.775 101.588 102.475 130.888 66.3316 130.888C30.1879 130.888 0.887695 101.588 0.887695 65.4439C0.887695 29.3002 30.1879 0 66.3316 0C102.475 0 131.775 29.3002 131.775 65.4439ZM20.7581 65.4439C20.7581 90.6135 41.162 111.017 66.3316 111.017C91.5012 111.017 111.905 90.6135 111.905 65.4439C111.905 40.2743 91.5012 19.8704 66.3316 19.8704C41.162 19.8704 20.7581 40.2743 20.7581 65.4439Z" fill="#76ADFF" fill-opacity="0.62"/>
<path d="M7.05774 49.2371C3.45655 62.6769 4.47489 76.937 9.94937 89.7287C15.4238 102.52 25.037 113.102 37.2461 119.776C49.4552 126.449 63.5523 128.827 77.2751 126.529C90.9979 124.231 103.551 117.388 112.919 107.101C122.287 96.8133 127.928 83.6768 128.935 69.7993C129.943 55.9219 126.259 42.1084 118.475 30.5755C110.691 19.0426 99.2582 10.4591 86.0114 6.20244C72.7645 1.94585 58.4717 2.26295 45.4267 7.1029L49.5554 18.2309C60.1062 14.3164 71.6662 14.0599 82.3803 17.5027C93.0944 20.9454 102.341 27.8877 108.637 37.2156C114.933 46.5434 117.912 57.7158 117.097 68.9398C116.282 80.1639 111.72 90.7888 104.143 99.1094C96.566 107.43 86.4134 112.964 75.3144 114.823C64.2154 116.682 52.8136 114.758 42.9389 109.361C33.0642 103.963 25.2891 95.4046 20.8613 85.0587C16.4336 74.7127 15.6099 63.1792 18.5226 52.3091L7.05774 49.2371Z" fill="#0066FF"/>
</svg>
