<svg width="132" height="131" viewBox="0 0 132 131" fill="none" xmlns="http://www.w3.org/2000/svg">
<path d="M131.663 65.4438C131.663 29.3001 102.363 -9.15527e-05 66.2193 -9.15527e-05C30.0756 -9.15527e-05 0.775391 29.3001 0.775391 65.4438C0.775391 101.587 30.0756 130.888 66.2193 130.888C102.363 130.888 131.663 101.587 131.663 65.4438ZM20.6457 65.4438C20.6457 40.2742 41.0497 19.8703 66.2193 19.8703C91.3889 19.8703 111.793 40.2742 111.793 65.4438C111.793 90.6134 91.3889 111.017 66.2193 111.017C41.0497 111.017 20.6457 90.6134 20.6457 65.4438Z" fill="#FF5C00" fill-opacity="0.44"/>
<path d="M43.1629 8.22765C57.4511 2.31247 73.4327 1.94322 87.9789 7.19218C102.525 12.4411 114.588 22.9304 121.807 36.6063C129.026 50.2823 130.88 66.1602 127.008 81.1316C123.135 96.1031 113.813 109.09 100.868 117.55C87.923 126.01 72.2865 129.333 57.0197 126.87C41.7529 124.407 27.9552 116.334 18.3277 104.232C8.7003 92.13 3.93641 76.8705 4.96871 61.4407C6.001 46.0109 12.7552 31.522 23.9089 20.8105L32.1303 29.3713C23.1092 38.0348 17.6464 49.7534 16.8115 62.233C15.9766 74.7126 19.8296 87.0545 27.6163 96.8425C35.403 106.63 46.5626 113.16 58.9104 115.152C71.2582 117.144 83.905 114.456 94.3749 107.614C104.845 100.772 112.384 90.2679 115.517 78.159C118.649 66.0502 117.149 53.2081 111.31 42.147C105.472 31.0858 95.7151 22.6022 83.9501 18.3568C72.1852 14.1115 59.2593 14.4101 47.7029 19.1943L43.1629 8.22765Z" fill="#FF5C00"/>
</svg>
