<svg width="723" height="184" viewBox="0 0 723 184" fill="none" xmlns="http://www.w3.org/2000/svg">
<path d="M17.1667 156.804C6.6666 159.814 4.36705 161.716 1.81398 166.317C0.914492 167.938 0.5 169.782 0.5 171.636C0.5 178.094 5.73465 183.328 12.1919 183.328H708.401C717.243 183.328 723.96 175.215 722.756 166.456C718.38 134.597 715.626 94.4967 701.611 92.744C692.677 91.6268 693.833 168.816 669.389 156.804C644.944 144.793 686.056 43.1982 593.833 7.16406C501.611 -28.8701 544.944 86.7388 503.278 139.789C461.611 192.838 421.056 127.276 419.944 98.2486C418.833 69.2217 391.611 67.7203 373.833 70.7231C356.056 73.7259 362.167 103.253 358.278 115.766C354.389 128.278 337.722 115.766 331.056 107.258C324.389 98.7511 336.056 22.6786 308.278 22.1781C280.5 21.6777 284.944 111.761 273.278 121.771C261.611 131.78 236.611 121.771 232.167 115.766C227.722 109.76 218.278 40.1955 194.389 43.1982C170.5 46.201 168.278 139.789 158.833 139.789C149.389 139.789 142.722 88.7407 127.722 86.7388C112.722 84.737 107.722 132.782 103.278 143.291C98.8333 153.801 86.6111 143.792 83.8333 139.789C81.0555 135.785 64.9444 103.255 56.0556 107.258C47.1667 111.262 42.1667 126.276 35.5 139.789C28.8333 153.301 29.3889 153.301 17.1667 156.804Z" fill="#0F61FF"/>
</svg>
