<svg width="709" height="213" viewBox="0 0 709 213" fill="none" xmlns="http://www.w3.org/2000/svg">
<path d="M104.351 56.0887C119.806 -56.3182 77.6296 57.6902 3.03934 187.982C-3.13177 198.762 4.57911 212.328 17.0001 212.328H694.393C701.781 212.328 708.209 207.232 708.49 199.85C708.895 189.24 707.648 174.472 701.733 159.327C690.573 130.753 703.046 76.8285 689.26 46.4103C675.475 15.992 660.376 94.803 653.155 151.952C645.934 209.102 610.485 151.492 575.036 42.7232C539.587 -66.0452 559.281 137.204 552.059 144.578C544.838 151.952 546.808 123.839 494.291 36.2715C441.773 -51.2956 487.069 36.2715 482.474 123.839C477.879 211.406 472.627 159.327 451.62 137.204C430.614 115.081 419.454 59.7759 404.355 50.0973C389.256 40.4188 368.906 145.961 359.716 174.997C350.525 204.032 362.864 124.76 288.161 20.6015C259.277 -19.6719 271.749 36.2715 259.277 132.135C246.804 227.999 223.827 188.824 200.851 86.0469C177.875 -16.73 174.593 7.23586 167.372 36.2715C160.151 65.3071 139.8 153.797 135.861 159.327C131.923 164.858 87.9395 175.457 104.351 56.0887Z" fill="#FF5C00"/>
</svg>
